<?xml version="1.0" encoding="UTF-8"?>
<svg width="26px" height="26px" viewBox="0 0 26 26" version="1.1" xmlns="http://www.w3.org/2000/svg" xmlns:xlink="http://www.w3.org/1999/xlink">
    <!-- Generator: Sketch 47.1 (45422) - http://www.bohemiancoding.com/sketch -->
    <title>icono +</title>
    <desc>Created with Sketch.</desc>
    <defs></defs>
    <g id="Page-1" stroke="none" stroke-width="1" fill="none" fill-rule="evenodd">
        <g id="Home-Banking---Transfer-3" transform="translate(-673.000000, -451.000000)" fill="#0097EA">
            <g id="New-Transfer" transform="translate(57.000000, 287.000000)">
                <g id="Table" transform="translate(0.000000, 71.000000)">
                    <g id="Destination-2" transform="translate(476.000000, 30.000000)">
                        <g id="New-account" transform="translate(3.000000, 59.000000)">
                            <path d="M157,17.5833333 C157,17.9333333 156.76725,18.1666667 156.416667,18.1666667 L151.166667,18.1666667 L151.166667,23.4166667 C151.166667,23.7666667 150.933917,24 150.583333,24 L149.416667,24 C149.066667,24 148.833333,23.7666667 148.833333,23.4166667 L148.833333,18.1666667 L143.583333,18.1666667 C143.233333,18.1666667 143,17.9333333 143,17.5833333 L143,16.4166667 C143,16.0666667 143.233333,15.8333333 143.583333,15.8333333 L148.833333,15.8333333 L148.833333,10.5833333 C148.833333,10.2333333 149.066667,10 149.416667,10 L150.583333,10 C150.933917,10 151.166667,10.2333333 151.166667,10.5833333 L151.166667,15.8333333 L156.416667,15.8333333 C156.76725,15.8333333 157,16.0666667 157,16.4166667 L157,17.5833333 Z M149.999699,4 C142.820133,4 137,9.82059939 137,17 C137,24.1794006 142.820133,30 149.999699,30 C157.179867,30 163,24.1794006 163,17 C163,9.82059939 157.179867,4 149.999699,4 L149.999699,4 Z" id="icono-+"></path>
                        </g>
                    </g>
                </g>
            </g>
        </g>
    </g>
</svg>