<?xml version="1.0" encoding="UTF-8"?>
<svg width="49px" height="49px" viewBox="0 0 49 49" version="1.1" xmlns="http://www.w3.org/2000/svg" xmlns:xlink="http://www.w3.org/1999/xlink">
    <!-- Generator: Sketch 47.1 (45422) - http://www.bohemiancoding.com/sketch -->
    <title>Fill 1</title>
    <desc>Created with Sketch.</desc>
    <defs></defs>
    <g id="Page-1" stroke="none" stroke-width="1" fill="none" fill-rule="evenodd">
        <g id="Home-Banking---Summary" transform="translate(-684.000000, -403.000000)" fill="#71C763">
            <g id="New-Transfer" transform="translate(56.000000, 287.000000)">
                <g id="ok-transfer" transform="translate(414.000000, 116.000000)">
                    <g id="Check-" transform="translate(214.000000, 0.000000)">
                        <path d="M38.037943,17.3106295 L21.6658317,34.2967981 C21.4609135,34.5006535 21.2559953,34.6041821 20.948618,34.6041821 C20.6423079,34.6041821 20.438457,34.5006535 20.2324715,34.2967981 L12.2524014,25.7007188 L12.0464159,25.3944021 C11.842565,25.1905467 11.7401059,24.8831627 11.7401059,24.67824 C11.7401059,24.4733174 11.842565,24.1670007 12.0464159,23.962078 L13.4797761,22.5297539 C13.8885452,22.1199085 14.5032999,22.1199085 14.912069,22.5297539 L15.0145281,22.6311479 L20.6423079,28.669963 C20.8472262,28.8738183 21.1546035,28.8738183 21.3584544,28.669963 L35.0698308,14.4459813 L35.1722899,14.4459813 C35.581059,14.0361359 36.1947464,14.0361359 36.6045828,14.4459813 L38.037943,15.8783054 C38.4467121,16.2881507 38.4467121,16.9018514 38.037943,17.3106295 M24.4994664,0 C10.969528,0 0,10.9697669 0,24.5 C0,38.0313004 10.969528,49 24.4994664,49 C38.030472,49 49,38.0313004 49,24.5 C49,10.9697669 38.030472,0 24.4994664,0" id="Fill-1"></path>
                    </g>
                </g>
            </g>
        </g>
    </g>
</svg>