<?xml version="1.0" encoding="UTF-8"?>
<svg width="26px" height="26px" viewBox="0 0 26 26" version="1.1" xmlns="http://www.w3.org/2000/svg" xmlns:xlink="http://www.w3.org/1999/xlink">
    <!-- Generator: Sketch 47.1 (45422) - http://www.bohemiancoding.com/sketch -->
    <title>Fill 1</title>
    <desc>Created with Sketch.</desc>
    <defs></defs>
    <g id="Page-1" stroke="none" stroke-width="1" fill="none" fill-rule="evenodd">
        <g id="Home-Banking---Transfer-1" transform="translate(-674.000000, -455.000000)" fill="#0097EA">
            <g id="New-Transfer" transform="translate(57.000000, 287.000000)">
                <g transform="translate(0.000000, 72.000000)" id="Destination-account">
                    <g transform="translate(476.000000, 29.000000)">
                        <g id="Form" transform="translate(0.000000, 62.000000)">
                            <g id="icono-menos" transform="translate(141.000000, 5.000000)">
                                <path d="M19.7729409,13.5098364 C19.7729409,13.8643818 19.5371682,14.1007455 19.1820318,14.1007455 L6.18203182,14.1007455 C5.82748636,14.1007455 5.59112273,13.8643818 5.59112273,13.5098364 L5.59112273,12.3280182 C5.59112273,11.9734727 5.82748636,11.7371091 6.18203182,11.7371091 L19.1820318,11.7371091 C19.5371682,11.7371091 19.7729409,11.9734727 19.7729409,12.3280182 L19.7729409,13.5098364 Z M12.7765773,-0.000118181818 C5.72053182,-0.000118181818 -5.90909091e-05,5.71988182 -5.90909091e-05,12.7765182 C-5.90909091e-05,19.8325636 5.72053182,25.5531545 12.7765773,25.5531545 C19.8326227,25.5531545 25.5526227,19.8325636 25.5526227,12.7765182 C25.5526227,5.71988182 19.8326227,-0.000118181818 12.7765773,-0.000118181818 L12.7765773,-0.000118181818 Z" id="Fill-1"></path>
                            </g>
                        </g>
                    </g>
                </g>
            </g>
        </g>
    </g>
</svg>